<?xml version="1.0" encoding="iso-8859-1"?>
<!-- Generator: Adobe Illustrator 19.0.0, SVG Export Plug-In . SVG Version: 6.00 Build 0)  -->
<svg version="1.1" id="Capa_1" xmlns="http://www.w3.org/2000/svg" xmlns:xlink="http://www.w3.org/1999/xlink" x="0px" y="0px"
	 viewBox="0 0 512 512" style="enable-background:new 0 0 512 512;" xml:space="preserve">
<g>
	<path style="fill:#80C56E;" d="M390.046,61.629c-26.671-15.203-60.617-5.907-75.821,20.764
		c-17.886,31.377-19.544,78.346-18.288,109.054c-8.148-2.323-16.751-3.568-25.644-3.568c-8.236,0-16.221,1.071-23.828,3.074
		c2.279-39.32,2.201-106.487-19.954-146.819C207.718,9.924,164.75-2.574,130.54,16.219s-46.708,61.76-27.915,95.971
		c23.174,42.185,76.768,76.441,110.833,94.989c-22.197,17.064-36.508,43.88-36.508,74.042c0,51.552,41.791,157.314,93.343,157.314
		s93.343-105.762,93.343-157.314c0-30.003-14.159-56.696-36.155-73.772c27.455-15.341,66.843-41.079,83.329-70
		C426.014,110.779,416.717,76.833,390.046,61.629z"/>
	<path style="fill:#80C56E;" d="M295.938,191.447c-8.148-2.323-16.751-3.568-25.644-3.568c-8.236,0-16.221,1.071-23.828,3.074
		c-17.951,4.698-33.007,16.226-33.007,16.226c-22.197,17.064-36.508,43.88-36.508,74.042c0,51.552,41.791,157.314,93.343,157.314
		s93.343-105.762,93.343-157.314c0-30.003-14.159-56.696-36.155-73.772C305.352,192.609,295.938,191.447,295.938,191.447z"/>
</g>
<g>
	<path style="fill:#66AD66;" d="M234.806,63.226c-2.575-6.805-4.993-12.578-7.101-16.803c-0.396-0.766-0.783-1.541-1.194-2.288
		c-0.568-1.034-1.16-2.046-1.771-3.039c-0.204-0.332-0.422-0.65-0.631-0.978c-0.416-0.653-0.832-1.306-1.266-1.94
		c-0.262-0.383-0.537-0.752-0.806-1.129c-0.4-0.56-0.798-1.121-1.212-1.666c-0.299-0.394-0.609-0.777-0.916-1.163
		c-0.402-0.507-0.803-1.014-1.217-1.508c-0.328-0.391-0.665-0.772-1-1.155c-0.41-0.468-0.821-0.935-1.242-1.39
		c-0.353-0.382-0.713-0.756-1.074-1.129c-0.42-0.435-0.842-0.866-1.272-1.288c-0.376-0.37-0.757-0.733-1.141-1.094
		c-0.43-0.404-0.863-0.802-1.301-1.193c-0.399-0.356-0.801-0.709-1.207-1.055c-0.436-0.372-0.878-0.737-1.323-1.098
		c-0.423-0.343-0.846-0.684-1.276-1.016c-0.441-0.341-0.888-0.673-1.337-1.003c-0.446-0.329-0.893-0.658-1.346-0.975
		c-0.441-0.309-0.888-0.606-1.336-0.904c-0.474-0.316-0.947-0.635-1.427-0.939c-0.431-0.273-0.869-0.531-1.305-0.794
		c-0.509-0.307-1.017-0.618-1.533-0.912c-0.397-0.226-0.801-0.436-1.202-0.654c-0.567-0.308-1.131-0.621-1.705-0.913
		c-0.273-0.139-0.553-0.265-0.828-0.4c-2.475-1.218-5.012-2.295-7.605-3.215c-0.125-0.044-0.248-0.094-0.373-0.138
		c-0.776-0.271-1.56-0.517-2.345-0.76c-0.247-0.077-0.492-0.161-0.741-0.235c-0.753-0.225-1.513-0.428-2.274-0.627
		c-0.283-0.074-0.564-0.154-0.848-0.225c-0.752-0.187-1.509-0.356-2.267-0.518c-0.295-0.063-0.588-0.13-0.884-0.19
		c-0.76-0.153-1.524-0.289-2.289-0.417c-0.294-0.049-0.589-0.1-0.884-0.146c-0.775-0.12-1.554-0.225-2.333-0.319
		c-0.283-0.034-0.566-0.068-0.85-0.099c-0.797-0.086-1.595-0.159-2.396-0.219c-0.263-0.02-0.526-0.037-0.79-0.054
		c-0.824-0.052-1.649-0.092-2.475-0.115c-0.233-0.007-0.466-0.009-0.699-0.014c-0.859-0.015-1.718-0.02-2.578-0.004
		c-0.187,0.003-0.374,0.011-0.561,0.016c-0.908,0.024-1.817,0.06-2.727,0.12c-0.108,0.007-0.217,0.018-0.325,0.025
		c-7.358,0.516-14.722,2.189-21.824,5.11c13.185,5.393,73.074,48.087,94.629,183.299c4.289-1.972,9.063-3.811,14.064-5.12
		C248.414,157.337,248.627,103.379,234.806,63.226z"/>
	<path style="fill:#66AD66;" d="M327.481,207.45c-22.129-14.841-31.543-16.003-31.543-16.003
		c-8.148-2.323-16.751-3.568-25.644-3.568c-0.864,0-1.723,0.018-2.581,0.042c2.616,1.673,5.465,3.587,8.573,5.796
		c21.997,18.091,36.155,46.37,36.155,78.156c0,45.353-28.819,130.302-68.114,157.814c8.244,5.609,16.955,8.849,25.966,8.849
		c51.552,0,93.343-105.762,93.343-157.314C363.636,251.219,349.477,224.527,327.481,207.45z"/>
	<path style="fill:#66AD66;" d="M250.787,433.531c0.395,0.202,0.79,0.398,1.187,0.588
		C251.577,433.928,251.181,433.732,250.787,433.531z"/>
	<path style="fill:#66AD66;" d="M249.097,432.632c0.413,0.229,0.827,0.45,1.242,0.667
		C249.925,433.082,249.51,432.861,249.097,432.632z"/>
	<path style="fill:#66AD66;" d="M258.288,436.629c-0.826-0.261-1.648-0.547-2.467-0.859
		C256.64,436.081,257.462,436.369,258.288,436.629z"/>
	<path style="fill:#66AD66;" d="M244.327,429.687c20.405-14.286,37.983-44.062,50.17-75.738
		c-16.245,27.744-37.227,48.648-60.142,48.648c-6.663,0-13.16-1.779-19.428-4.967c9.959,15.302,21.432,27.827,33.863,34.827
		C247.288,431.612,245.8,430.689,244.327,429.687z"/>
	<path style="fill:#66AD66;" d="M254.18,435.112c0.388,0.164,0.776,0.327,1.165,0.48C254.956,435.44,254.568,435.276,254.18,435.112
		z"/>
	<path style="fill:#66AD66;" d="M259.596,437.017c-0.31-0.087-0.622-0.17-0.931-0.265
		C258.975,436.846,259.286,436.93,259.596,437.017z"/>
	<path style="fill:#66AD66;" d="M252.484,434.359c0.387,0.18,0.774,0.358,1.163,0.527
		C253.258,434.717,252.871,434.54,252.484,434.359z"/>
	<path style="fill:#66AD66;" d="M261.32,437.464c-0.291-0.069-0.583-0.136-0.874-0.211
		C260.737,437.327,261.028,437.395,261.32,437.464z"/>
	<path style="fill:#66AD66;" d="M268.473,438.489c-0.206-0.01-0.411-0.028-0.616-0.041
		C268.062,438.461,268.267,438.479,268.473,438.489z"/>
	<path style="fill:#66AD66;" d="M390.046,61.629c-3.414-1.946-6.949-3.485-10.547-4.643c4.594,14.315,14.691,75.232-68.556,140.483
		c4.435,2.327,9.912,5.537,16.538,9.981c27.455-15.341,66.843-41.079,83.329-70C426.014,110.779,416.717,76.833,390.046,61.629z"/>
	<path style="fill:#66AD66;" d="M266.663,438.356c-0.247-0.024-0.493-0.054-0.74-0.082
		C266.17,438.302,266.416,438.332,266.663,438.356z"/>
	<path style="fill:#66AD66;" d="M263.08,437.84c-0.278-0.053-0.556-0.107-0.833-0.165
		C262.525,437.733,262.802,437.787,263.08,437.84z"/>
	<path style="fill:#66AD66;" d="M264.865,438.139c-0.266-0.038-0.531-0.08-0.796-0.123
		C264.335,438.059,264.6,438.101,264.865,438.139z"/>
</g>
<path style="fill:#FEC37D;" d="M351.062,504.5H198.639c-8.567,0-16.325-6.468-18.053-15.152l-26.32-120.513h241.169l-26.32,120.513
	C367.387,498.032,359.629,504.5,351.062,504.5z"/>
<path style="fill:#F9AE5D;" d="M344.433,368.835l-26.32,120.513c-1.728,8.684-9.486,15.152-18.053,15.152h51.002
	c8.567,0,16.325-6.468,18.053-15.152l26.32-120.513H344.433z"/>
<path style="fill:#F2A559;" d="M408.026,388.143H141.675c-2.697,0-4.884-2.187-4.884-4.884v-18.656c0-2.697,2.187-4.884,4.884-4.884
	h266.351c2.697,0,4.884,2.187,4.884,4.884v18.656C412.91,385.957,410.723,388.143,408.026,388.143z"/>
<path style="fill:#EA8F3D;" d="M408.026,359.72h-45.941v28.423h45.941c2.697,0,4.884-2.187,4.884-4.884v-18.656
	C412.91,361.906,410.723,359.72,408.026,359.72z"/>
<path d="M223.425,251.71l-2.047-7.63c-1.073-4.001-5.187-6.374-9.187-5.301c-4.001,1.073-6.374,5.187-5.301,9.187l2.047,7.63
	c0.898,3.35,3.928,5.559,7.239,5.559c0.644,0,1.297-0.083,1.948-0.258C222.125,259.825,224.498,255.711,223.425,251.71z"/>
<path d="M223.425,151.336l-2.046-7.631c-1.073-4.001-5.188-6.371-9.188-5.301c-4.001,1.073-6.374,5.187-5.301,9.188l2.046,7.631
	c0.899,3.35,3.929,5.559,7.24,5.559c0.644,0,1.297-0.083,1.948-0.258C222.125,159.451,224.498,155.337,223.425,151.336z"/>
<path d="M332.656,155.223c0.898,3.35,3.929,5.559,7.24,5.559c0.644,0,1.297-0.083,1.948-0.258c4.001-1.073,6.374-5.186,5.301-9.187
	l-2.047-7.631c-1.073-4.001-5.184-6.371-9.188-5.301c-4.001,1.073-6.374,5.187-5.301,9.188L332.656,155.223z"/>
<path d="M193.903,70.29c-4.001,1.073-6.374,5.187-5.301,9.187l2.047,7.63c0.898,3.35,3.928,5.559,7.239,5.559
	c0.644,0,1.297-0.084,1.948-0.258c4.001-1.073,6.374-5.187,5.301-9.187l-2.047-7.63C202.018,71.589,197.904,69.217,193.903,70.29z"
	/>
<path d="M338.872,110.281c0.644,0,1.298-0.083,1.948-0.258c4.001-1.073,6.374-5.187,5.301-9.187l-2.047-7.63
	c-1.074-4.001-5.19-6.373-9.188-5.301c-4.001,1.073-6.374,5.187-5.301,9.187l2.047,7.63
	C332.532,108.072,335.561,110.281,338.872,110.281z"/>
<path d="M130.727,74.105c-4.001,1.073-6.374,5.187-5.301,9.187l2.047,7.63c0.898,3.35,3.928,5.559,7.239,5.559
	c0.644,0,1.297-0.083,1.948-0.258c4.001-1.073,6.374-5.187,5.301-9.187l-2.047-7.63C138.841,75.404,134.728,73.033,130.727,74.105z"
	/>
<path d="M257.59,291.502c0.899,3.35,3.929,5.559,7.24,5.559c0.644,0,1.298-0.083,1.948-0.258c4.001-1.073,6.374-5.187,5.301-9.187
	l-2.047-7.63c-1.074-4.001-5.19-6.372-9.188-5.301c-4.001,1.073-6.374,5.187-5.301,9.187L257.59,291.502z"/>
<path d="M234.881,321.901c-4.001,1.073-6.374,5.187-5.301,9.188l2.046,7.631c0.899,3.35,3.929,5.559,7.24,5.559
	c0.644,0,1.297-0.083,1.948-0.258c4.001-1.073,6.374-5.186,5.301-9.187l-2.046-7.631
	C242.995,323.202,238.881,320.831,234.881,321.901z"/>
<path d="M311.819,253.268c4.001-1.073,6.374-5.187,5.301-9.187l-2.047-7.63c-1.074-4.001-5.189-6.373-9.188-5.301
	c-4.001,1.073-6.374,5.187-5.301,9.187l2.047,7.63c0.899,3.35,3.929,5.559,7.24,5.559
	C310.514,253.526,311.169,253.442,311.819,253.268z"/>
<path d="M266.626,233.2l3.071-7.279c1.61-3.816-0.178-8.216-3.994-9.826c-3.817-1.611-8.215,0.178-9.827,3.995l-3.071,7.279
	c-1.61,3.816,0.178,8.216,3.995,9.826c0.952,0.402,1.94,0.592,2.913,0.592C262.638,237.787,265.417,236.065,266.626,233.2z"/>
<path d="M168.307,118.699c-3.817-1.61-8.216,0.178-9.826,3.995l-3.071,7.279c-1.61,3.816,0.178,8.216,3.995,9.826
	c0.952,0.402,1.94,0.592,2.912,0.592c2.925,0,5.705-1.722,6.914-4.587l3.071-7.279C173.912,124.709,172.124,120.31,168.307,118.699z
	"/>
<path d="M383.022,103.57c-3.817-1.611-8.216,0.178-9.827,3.994l-3.071,7.279c-1.61,3.817,0.178,8.216,3.994,9.827
	c0.952,0.402,1.941,0.592,2.913,0.592c2.925,0,5.704-1.722,6.913-4.586l3.071-7.279C388.627,109.58,386.838,105.18,383.022,103.57z"
	/>
<path d="M168.308,33.404c-3.818-1.611-8.216,0.178-9.827,3.994l-3.071,7.279c-1.61,3.817,0.178,8.216,3.994,9.827
	c0.952,0.402,1.941,0.592,2.913,0.592c2.925,0,5.705-1.722,6.914-4.586l3.071-7.279C173.912,39.414,172.124,35.015,168.308,33.404z"
	/>
<path d="M292.169,315.375l-3.07,7.279c-1.61,3.817,0.179,8.216,3.995,9.826c0.952,0.402,1.94,0.592,2.912,0.592
	c2.925,0,5.705-1.722,6.913-4.587l3.07-7.279c1.61-3.817-0.179-8.216-3.995-9.826C298.179,309.768,293.778,311.557,292.169,315.375z
	"/>
<path d="M328.492,301.195c2.925,0,5.705-1.723,6.913-4.587l3.07-7.279c1.61-3.817-0.179-8.216-3.995-9.826
	c-3.818-1.61-8.216,0.178-9.826,3.995l-3.07,7.279c-1.61,3.817,0.179,8.216,3.995,9.826
	C326.532,301.005,327.519,301.195,328.492,301.195z"/>
<path d="M211.681,298.079c-3.817-1.61-8.216,0.179-9.826,3.995l-3.071,7.279c-1.61,3.817,0.178,8.216,3.995,9.826
	c0.952,0.402,1.94,0.592,2.912,0.592c2.925,0,5.705-1.722,6.914-4.587l3.071-7.279C217.287,304.089,215.498,299.69,211.681,298.079z
	"/>
<path d="M408.026,352.22h-51.784c9.403-25.542,14.895-51.457,14.895-70.998c0-27.698-11.091-53.581-30.764-72.524
	c12.733-7.51,24.318-15.211,34.539-22.964c3.301-2.504,3.947-7.208,1.443-10.509c-2.503-3.299-7.209-3.946-10.508-1.443
	c-12.089,9.169-26.227,18.293-42.024,27.12c-2.196,1.228-3.631,3.474-3.82,5.983s0.892,4.946,2.879,6.489
	c21.134,16.407,33.255,41.136,33.255,67.848c0,18.87-6.054,45.69-15.934,70.998H200.385c-9.88-25.307-15.934-52.128-15.934-70.998
	c0-26.871,12.239-51.691,33.579-68.096c2.012-1.546,3.105-4.005,2.906-6.534c-0.199-2.529-1.663-4.786-3.891-6
	c-30.532-16.624-85.143-50.684-107.847-92.013c-8.124-14.79-10.003-31.858-5.29-48.061s15.454-29.601,30.243-37.725
	c30.532-16.771,69.014-5.577,85.786,24.953c21.497,39.133,21.157,106.25,19.04,142.774c-0.139,2.398,0.879,4.718,2.739,6.239
	c1.859,1.521,4.336,2.06,6.658,1.448c14.824-3.902,30.807-3.737,45.506,0.453c2.315,0.662,4.807,0.169,6.697-1.32
	c1.891-1.489,2.952-3.795,2.855-6.2c-2.48-60.618,9.781-91.825,17.309-105.033c6.361-11.159,16.686-19.172,29.075-22.565
	c12.387-3.393,25.356-1.758,36.515,4.603c23.035,13.131,31.093,42.555,17.964,65.589c-0.747,1.311-1.561,2.637-2.416,3.944
	c-2.269,3.465-1.298,8.115,2.167,10.383c3.467,2.268,8.115,1.299,10.384-2.167c1.023-1.562,1.996-3.152,2.896-4.73
	c17.227-30.222,6.655-68.824-23.567-86.051c-14.639-8.346-31.653-10.49-47.906-6.039S316.055,64.04,307.71,78.679
	c-16.701,29.298-20.089,70.664-19.549,103.281c-11.074-1.98-22.582-2.098-33.725-0.335c1.612-39.466,0.085-102.079-21.351-141.101
	C212.331,2.743,164.711-11.11,126.93,9.646C89.149,30.4,75.297,78.021,96.052,115.801c12.28,22.355,40.337,56.172,104.369,92.698
	c-19.806,18.956-30.97,44.903-30.97,72.722c0,19.542,5.491,45.457,14.894,70.998h-42.669c-6.829,0-12.384,5.555-12.384,12.384
	v18.656c0,6.829,5.555,12.384,12.384,12.384h10.768l20.801,95.241C175.677,502.928,186.581,512,198.639,512h152.423
	c12.058,0,22.962-9.073,25.394-21.116l20.8-95.24h10.77c6.828,0,12.384-5.555,12.384-12.384v-18.656
	C420.41,357.775,414.854,352.22,408.026,352.22z M361.787,487.747c-0.01,0.045-0.02,0.091-0.028,0.137
	c-1.018,5.112-5.716,9.115-10.697,9.115H198.639c-4.981,0-9.68-4.004-10.696-9.115c-0.009-0.046-0.019-0.091-0.029-0.137
	l-9.602-43.963l0,0l20.876,12.888c1.208,0.746,2.574,1.118,3.94,1.118s2.733-0.373,3.94-1.118l31.928-19.711l31.93,19.711
	c2.414,1.491,5.465,1.491,7.879,0l31.929-19.711l31.933,19.711c2.414,1.491,5.465,1.491,7.879,0l20.836-12.861l0,0L361.787,487.747z
	 M405.41,380.643h-14.09c-0.01,0-0.019,0-0.029,0h-149.96c-4.142,0-7.5,3.358-7.5,7.5s3.358,7.5,7.5,7.5h140.572l-6.07,27.793l0,0
	l-29.226,18.039l-31.933-19.711c-2.414-1.491-5.465-1.491-7.879,0l-31.929,19.711l-31.929-19.711c-2.415-1.491-5.465-1.491-7.88,0
	l-31.928,19.711l-29.266-18.069l-6.064-27.764h19.53c4.142,0,7.5-3.358,7.5-7.5s-3.358-7.5-7.5-7.5h-28.923
	c-0.007,0-0.014,0-0.021,0h-14.092V367.22h51.022h149.959h60.137L405.41,380.643L405.41,380.643z"/>
<g>
</g>
<g>
</g>
<g>
</g>
<g>
</g>
<g>
</g>
<g>
</g>
<g>
</g>
<g>
</g>
<g>
</g>
<g>
</g>
<g>
</g>
<g>
</g>
<g>
</g>
<g>
</g>
<g>
</g>
</svg>
