<svg id="Capa_1" enable-background="new 0 0 512 512" height="512" viewBox="0 0 512 512" width="512" xmlns="http://www.w3.org/2000/svg"><path d="m93.007 145.41c0 12.987 6.364 24.54 16.299 32.599 9.935-8.058 16.299-19.612 16.299-32.599 0-11.658-5.127-22.159-13.363-30.015-1.615-1.54-4.259-1.54-5.873 0-8.235 7.855-13.362 18.357-13.362 30.015z" fill="#ff8086"/><path d="m119.428 147.645c-8.064 8.064-11.287 19.19-10.121 30.364 11.173 1.166 22.299-2.057 30.364-10.121 7.113-7.113 10.459-16.608 10.35-26.416-.025-2.25-1.926-4.151-4.176-4.176-9.81-.111-19.304 3.235-26.417 10.349z" fill="#ff8086"/><path d="m99.153 147.645c8.064 8.064 11.287 19.19 10.121 30.364-11.173 1.166-22.299-2.057-30.364-10.121-7.113-7.113-10.459-16.608-10.35-26.416.025-2.25 1.926-4.151 4.176-4.176 9.809-.111 19.304 3.235 26.417 10.349z" fill="#e5646e"/><path d="m386.426 96.512c0 12.987 6.364 24.54 16.299 32.599 9.935-8.058 16.299-19.612 16.299-32.599 0-11.658-5.127-22.159-13.363-30.015-1.615-1.54-4.259-1.54-5.873 0-8.234 7.855-13.362 18.357-13.362 30.015z" fill="#ff8086"/><path d="m412.847 98.747c-8.064 8.064-11.287 19.19-10.121 30.364 11.173 1.166 22.299-2.057 30.364-10.121 7.113-7.113 10.459-16.608 10.35-26.416-.025-2.25-1.926-4.151-4.176-4.176-9.809-.111-19.304 3.235-26.417 10.349z" fill="#ff8086"/><path d="m392.572 98.747c8.064 8.064 11.287 19.19 10.121 30.364-11.173 1.166-22.299-2.057-30.364-10.121-7.113-7.113-10.459-16.608-10.35-26.416.025-2.25 1.926-4.151 4.176-4.176 9.81-.111 19.304 3.235 26.417 10.349z" fill="#e5646e"/><path d="m247.85 31.171c0 12.987 6.364 24.54 16.299 32.599 9.935-8.058 16.299-19.612 16.299-32.599 0-11.658-5.127-22.159-13.363-30.015-1.615-1.54-4.259-1.54-5.873 0-8.234 7.855-13.362 18.357-13.362 30.015z" fill="#ff8086"/><path d="m274.271 33.406c-8.064 8.064-11.287 19.19-10.121 30.364 11.173 1.166 22.299-2.057 30.364-10.121 7.113-7.113 10.459-16.608 10.35-26.416-.025-2.25-1.926-4.151-4.176-4.176-9.809-.111-19.304 3.235-26.417 10.349z" fill="#ff8086"/><path d="m253.996 33.406c8.064 8.064 11.287 19.19 10.121 30.364-11.173 1.166-22.299-2.057-30.364-10.121-7.113-7.113-10.459-16.608-10.35-26.416.025-2.25 1.926-4.151 4.176-4.176 9.809-.111 19.304 3.235 26.417 10.349z" fill="#e5646e"/><path d="m132 323-22.694-145.136c-18.003 0-32.599 14.595-32.599 32.599v97.796c0 36.007 29.19 65.197 65.197 65.197h73.347v-50.456z" fill="#aedb81"/><path d="m141.905 210.463v97.796h73.347v32.599h-73.347c-18.004 0-32.599-14.595-32.599-32.599v-130.395c18.005 0 32.599 14.595 32.599 32.599z" fill="#95cc81"/><path d="m402.694 128.967-21.694 32.598v97.768h-67.952v48.925h57.048c36.007 0 65.197-29.19 65.197-65.197v-81.496c-.001-18.004-14.596-32.598-32.599-32.598z" fill="#aedb81"/><path d="m370.095 161.565v81.496h-57.048v32.599h57.048c18.004 0 32.599-14.595 32.599-32.599v-114.094c-18.005 0-32.599 14.594-32.599 32.598z" fill="#95cc81"/><path d="m264.15 63.769c-36.008 0-65.197 29.19-65.197 65.197v374.884h130.394v-374.883c0-36.008-29.19-65.198-65.197-65.198z" fill="#aedb81"/><path d="m264.15 63.769c-18.004 0-15.993 29.19-15.993 65.197v374.884h48.592v-374.883c-.001-36.008-14.596-65.198-32.599-65.198z" fill="#c8eb82"/><path d="m353.796 495.701h-89.646v-431.932c-18.004 0-32.599 29.19-32.599 65.197v366.734h-57.048c-4.505 0-8.15 3.649-8.15 8.15s3.645 8.15 8.15 8.15h179.292c4.505 0 8.15-3.649 8.15-8.15s-3.645-8.149-8.149-8.149z" fill="#95cc81"/></svg>